<?xml version="1.0" encoding="utf-8"?>
<!-- Generator: Adobe Illustrator 22.1.0, SVG Export Plug-In . SVG Version: 6.00 Build 0)  -->
<svg version="1.1" xmlns="http://www.w3.org/2000/svg" xmlns:xlink="http://www.w3.org/1999/xlink" x="0px" y="0px"
	 viewBox="0 0 1920 1080" style="enable-background:new 0 0 1920 1080;" xml:space="preserve">
<style type="text/css">
	.st0{opacity:0.1;}
	.st1{fill:#362C44;}
	.st2{fill:#BF471D;}
	.st3{fill:#FFC90C;}
	.st4{fill:#DB5B26;}
	.st5{fill:#F58420;}
	.st6{fill:#F4A822;}
	.st7{fill:#CECDCE;}
	.st8{fill:#9B9B9B;}
</style>
<g id="Calque_1">
</g>
<g id="Calque_2">
	<path class="st0" d="M1127.5,540.9c0,0,50.3-1.9,62,6.3c15.2,10.6-51.4,11.8-51.4,11.8L1127.5,540.9z"/>
	<path class="st0" d="M710.3,583.6c0,0,32.1-2.5,44.1,5.8c12.9,9-35.2,9.5-35.2,9.5L710.3,583.6z"/>
	<path class="st0" d="M1161,565c0,0,22.7-1.7,27.9,1.9c6.7,4.7-23.2,6.1-23.2,6.1L1161,565z"/>
	<polygon class="st0" points="895.8,623 902.7,623 941.3,635.2 954.9,635.2 964.5,643 1011.3,655.4 952.8,690.2 948,690.2 	"/>
	<g>
		<polygon class="st1" points="839.1,653.3 839.4,648.8 895.7,621.4 923.2,630.4 935.9,629.9 947,641.2 997.8,654.8 997.5,659.2 
			947.5,688.8 		"/>
		<g>
			<path class="st1" d="M895.8,623l27.2,8.9l12.3-0.5l10.9,11.1l50,13.4l-0.1,2.4l-48.8,28.8l-106.6-35l0.1-2.4l0,0l0,0L895.8,623
				 M895.6,619.8l-1.1,0.5l-55,26.8l-1.6,0.8l-0.1,1.8l-0.1,2.4l-0.1,2.3l2.2,0.7l106.6,35l1.3,0.4l1.2-0.7l48.8-28.8l1.4-0.8
				l0.1-1.6l0.1-2.4l0.1-2.4L997,653l-49.2-13.2l-10.3-10.6l-0.9-1l-1.3,0.1l-11.8,0.5l-26.6-8.7L895.6,619.8L895.6,619.8z"/>
		</g>
	</g>
	<g>
		<polygon class="st1" points="851.2,606.1 853.5,597.1 839.3,591.5 825.3,595.7 795.9,583.9 798.4,575.5 788.6,571.6 772.7,574.6 
			763.4,570.8 768.5,554.9 724.4,543.4 738.6,512.3 733.2,507 735.6,503.3 730.2,499.1 713,459.3 760.2,441.1 763.8,441.1 
			787,496.9 803.6,445 921,469.4 938.4,477.5 945.4,474.5 958.4,476.4 959.2,466.6 970,468.6 1038.5,382.1 1115.7,401.9 1124.8,444 
			1158.6,499.4 868.2,613 		"/>
		<path class="st1" d="M1039.1,383.7l75.3,19.4l9,41.4l32.9,54.1L868.2,611.4v0h0l-15.3-6.1l2.3-9l-16-6.3l-14,4.2L797.7,583
			l2.5-8.4l-11.4-4.5l-16,2.9l-7.6-3l5.1-16.1l0,0l0,0l-43.9-11.5l13.9-30.4l-5.3-5.2l2.5-3.8l-6.2-4.8L715,460.1l45.5-17.5h2.4
			l24.3,58.7v0l17.4-54.5l115.9,24.1l17.8,8.2l7.3-3.1l14.2,2.1l0.8-9.8l10,1.9L1039.1,383.7 M1037.9,380.4l-1.2,1.5L969.4,467
			l-8.2-1.5l-3.3-0.6l-0.3,3.3l-0.5,6.6l-11-1.7l-0.8-0.1l-0.8,0.3l-6,2.6l-16.6-7.7l-0.3-0.1l-0.3-0.1l-115.9-24.1l-2.6-0.5
			l-0.8,2.6l-14.9,46.7l-21.2-51.1l-0.8-1.9h-2h-2.4h-0.6l-0.5,0.2l-45.5,17.5l-2.9,1.1l1.2,2.9l16.5,38.1l0.3,0.7l0.6,0.5l4,3.1
			l-1,1.5l-1.4,2.1l1.8,1.7l3.8,3.7l-13.1,28.5l-1.5,3.2l3.5,0.9l40.8,10.7l-4.2,13.1l-0.9,2.7l2.6,1l7.6,3l0.8,0.3l0.8-0.2
			l15.1-2.8l8.1,3.2l-1.7,5.8l-0.8,2.6l2.5,1l27.6,11.1l1,0.4l1-0.3l13-3.9l12.5,5l-1.7,6.5l-0.7,2.6l2.4,1l15.3,6.1l1.1,0.4
			l1.1-0.4l288.1-112.7l3.3-1.3l-1.9-3.1l-32.7-53.7l-8.9-40.9l-0.4-1.8l-1.8-0.5l-75.3-19.4L1037.9,380.4L1037.9,380.4z"/>
	</g>
	<polygon class="st2" points="760.4,442.6 762.8,442.6 787.2,501.4 786.7,507.3 758.4,452.9 	"/>
	<polygon class="st0" points="868.2,614.5 1034.9,604.6 1072,554 1083.3,554 1085.3,547.2 1106,547.2 1110.3,539.1 1266.6,490.1 
		1193.1,440.1 1076.1,461.8 	"/>
	<polygon class="st3" points="1114.4,403.2 1039.1,383.8 970.6,470.3 960.6,468.4 959.8,478.2 945.6,476.1 938.3,479.2 920.5,471 
		804.6,446.9 903.4,470.6 998.2,527 1063.6,507.1 	"/>
	<path class="st4" d="M882.7,552.3"/>
	<polygon class="st5" points="903.4,470.6 987.8,509.7 994.4,504.3 1003.8,513.1 1005.9,504.3 1022.8,506.7 1025.5,496.1 
		1046.6,491.7 1114.4,403.2 1123.4,444.6 1156.4,498.7 868.2,611.5 	"/>
	<polygon class="st6" points="960.6,468.4 1025.5,496.1 1022.8,506.7 959.8,478.2 	"/>
	<polygon class="st6" points="1005.9,504.3 945.6,476.1 938.3,479.2 994.4,504.3 1003.8,513.1 	"/>
	<polygon class="st5" points="842.1,589.1 825.4,594.2 828,584.7 	"/>
	<polygon class="st5" points="793.5,569.3 772.8,573.1 775.9,563.1 	"/>
	<polygon class="st4" points="903.4,470.6 900.2,497.9 893.1,573.7 868.2,611.5 853,605.3 855.3,596.3 827.8,585.4 825.4,594.2 
		797.7,583.1 800.2,574.7 775.4,564.9 772.8,573.1 765.2,570.1 804.6,446.9 	"/>
	<polygon class="st2" points="876.1,595.2 772.3,554.7 806.4,449.1 899.9,473 889.8,572.3 	"/>
	<polygon class="st4" points="770.4,554 786.5,505.3 760.4,442.6 715,460.2 731.4,498.3 737.7,503.1 735.1,506.9 740.4,512.1 
		726.5,542.5 	"/>
	<polygon class="st5" points="772.3,554.7 895.3,517.9 889.8,572.3 876.1,595.2 	"/>
	<path class="st2" d="M979.1,564.6l25.8-10.1c0.6-0.3,1.1-1,1-1.7l-0.4-4.4c-0.1-0.8-0.8-1.3-1.6-1l-25.8,10c-0.7,0.3-1.1,1-1,1.7
		l0.4,4.4C977.5,564.4,978.3,564.9,979.1,564.6z"/>
	<path class="st2" d="M1045.1,539l25.8-10.1c0.6-0.3,1.1-1,1-1.7l-0.4-4.4c-0.1-0.8-0.8-1.3-1.6-1l-25.8,10c-0.7,0.3-1.1,1-1,1.7
		l0.4,4.4C1043.6,538.8,1044.4,539.3,1045.1,539z"/>
	<polygon class="st4" points="989.2,657.4 893.4,626 844.4,650.4 840.8,649.7 840.7,652.2 947.3,687.2 996.1,658.4 996.2,655.9 	"/>
	<polygon class="st5" points="895.8,623 923,631.9 935.3,631.4 946.2,642.6 996.2,655.9 947.4,684.7 840.8,649.7 	"/>
	<polygon class="st2" points="735.1,506.9 769.8,506.5 740.4,512.1 	"/>
	<polygon class="st2" points="731.4,498.3 758.4,502.7 737.7,503.1 	"/>
	<path class="st4" d="M909.9,485.1l-9.3,88.4l-6.3,10.5c-0.7,1.2,0.5,2.7,1.8,2.2l19-7.4c0.5-0.2,0.9-0.7,0.9-1.2l9.7-86.1
		c0.1-0.6-0.3-1.3-0.9-1.5l-12.9-6C911.1,483.4,910,484,909.9,485.1z"/>
	<path class="st4" d="M934.9,496.6l-7.3,74.9c-0.1,1.1,1,2,2.1,1.5l14.8-5.8c0.5-0.2,0.9-0.7,1-1.3l1.9-24.2l-2.8-6.4l3.9-7.1
		l-1.6-2.9l2-2.1l1.6-20.9c0-0.6-0.3-1.2-0.9-1.5l-12.5-5.5C936.1,494.9,935,495.5,934.9,496.6z"/>
	<path class="st4" d="M960.4,504.7l10.5,4.5c0.6,0.3,0.9,0.8,0.9,1.5l-0.8,12.7l-6.4,4.1l6.9,2.8l-9.7,5.7l8.9,4.8l-0.8,15.5
		c0,0.6-0.4,1.1-1,1.3l-11.8,4.6c-1.1,0.4-2.2-0.5-2-1.6l2.1-17.5l-3.1-5.8l4.1-5.8l-1.7-6.3l2.3-5.8l-0.5-13.3
		C958.2,505.1,959.4,504.3,960.4,504.7z"/>
	<path class="st4" d="M981.2,512.6l7.3,2.5l2.6-1.9c0.7-0.5,1.6,0.1,1.3,0.9l-2.2,7l1.1,2.9l-3.5,7.8l3.7,2.9l-1,5.8l6,1.8l-3.4,5.6
		c-0.2,0.3-0.4,0.5-0.7,0.6l-10.9,4.3c-1.1,0.4-2.2-0.5-2-1.6l1.2-10L973,538l7.8-6.6l-4.1-4l2.5-13.6
		C979.4,512.8,980.3,512.3,981.2,512.6z"/>
	<path class="st4" d="M998.8,513l6,4.4l2.1-4.1c0.3-0.7,1.3-0.5,1.5,0.2l1.6,6.8l2.8,1.3l-4.8,3.1l5,0.2l-2.3,4.9l6.6,2.5l-4.3,2.8
		l1.7,2.4c0.6,0.8,0.2,2-0.7,2.4l-11.2,4.4c-0.6,0.3-1.2-0.5-0.8-1l3-3.7l-4.7-2l0.4-5.2l-5.5-0.5l5.8-3.9l-4.8-4.3l0.9-10
		C997.1,513,998.1,512.5,998.8,513z"/>
	<path class="st4" d="M1014.8,509.6l9.5,0.6l1.2-1.7c0.3-0.5,1-0.4,1.3,0.1l1.3,2.6l-1.2,4.8l4.1,1l-3.8,4.1l7,0.2l-0.9,3.9l1.4,4.7
		c0.3,0.9-0.2,1.9-1.1,2.3l-11.4,4.5l3.4-4.2l-1.9-0.3l1.7-2.4l-5.2-2.4l0.8-5.2l-2.7-0.2l1.2-2.8l-4.1-2.1l-2-6.3
		C1013.4,510.4,1014,509.6,1014.8,509.6z"/>
	<path class="st4" d="M1030.1,500l-0.6,3.3l2.5,6l0.3,3.5l5.7,1.6l-0.7,4l2.8,1.6l-0.6,5.3l1.4,2.9c0.3,0.7,1.1,1,1.8,0.7l10-3.8
		c0.7-0.3,1.1-1.1,0.7-1.8l-4-7.4l0.6-10.8l-7.3-1.1l0.9-5.9c0.1-0.7-0.5-1.2-1.2-1.1l-11.1,2C1030.6,499,1030.2,499.5,1030.1,500z"
		/>
	<path class="st4" d="M1050.1,494.3l-0.4,5.7l5.7,1.1l0.2,13.3l3.8,6.5c0.4,0.7,1.2,0.9,1.9,0.7l8.8-3.4c0.6-0.3,0.9-1,0.6-1.6
		l-6.6-12.8l-2.8-22.6c-0.1-0.6-0.8-0.8-1.1-0.3l-9.6,12.3C1050.3,493.5,1050.1,493.9,1050.1,494.3z"/>
	<path class="st4" d="M1066.9,473.4l8.3-11.2c0.9-1.1,2.7-0.7,2.9,0.7l5.1,25.1c0,0.1,0,0.2,0.1,0.2l10.8,17.8
		c0.7,1.2,0.2,2.7-1.1,3.2l-12.4,4.8c-1,0.4-2.2,0-2.8-0.9l-7.3-11.4c-0.1-0.1-0.1-0.2-0.1-0.3l-4.1-26.2
		C1066.4,474.5,1066.6,473.9,1066.9,473.4z"/>
	<path class="st4" d="M1083.9,453.4l10-12.9c0.5-0.7,1.6-0.4,1.8,0.4l6.6,30.7l16,26.1c0.4,0.7,0.1,1.6-0.6,1.9l-12.3,4.8
		c-0.7,0.3-1.5,0-2-0.6l-13.8-19.8l-6.1-28.4C1083.2,454.8,1083.4,454,1083.9,453.4z"/>
	<path class="st4" d="M1100.9,432.6l9.3-13.3c0.6-0.8,1.8-0.6,2.1,0.4l6.6,29.6l24.1,38.7c0.4,0.7,0.1,1.6-0.6,1.9l-12.9,5.1
		c-0.8,0.3-1.7,0-2.2-0.7l-18.5-28.2l-8-31.8C1100.5,433.7,1100.6,433.1,1100.9,432.6z"/>
	<g>
		<path class="st2" d="M925,489.8l-2-0.9c0.5,0.3,0.8,0.9,0.7,1.5l-9.7,86.1c-0.1,0.6-0.4,1-0.9,1.2l-18.9,7.4
			c0.2,0.8,1.1,1.4,2,1.1l19-7.4c0.5-0.2,0.9-0.7,0.9-1.2l9.7-86.1C925.9,490.7,925.5,490.1,925,489.8z"/>
		<path class="st2" d="M950.5,502.3c0-0.6-0.3-1.2-0.9-1.5l-1.7-0.8c0.4,0.3,0.5,0.8,0.5,1.2l-1.6,20.9l-2,2.1l1.6,2.9l-3.9,7.1
			l2.8,6.4l-1.9,24.2c0,0.6-0.4,1.1-1,1.3l-14.7,5.8c0.2,0.9,1.1,1.4,2,1.1l14.8-5.8c0.5-0.2,0.9-0.7,1-1.3l1.9-24.2l-2.8-6.4
			l3.9-7.1l-1.6-2.9l2-2.1L950.5,502.3z"/>
		<g>
			<path class="st2" d="M970.7,540.9l-0.8,15.5c0,0.6-0.4,1.1-1,1.3l-11.8,4.6c-0.9,0.3-1.8-0.2-2-1.1l11.7-4.6
				c0.6-0.2,0.9-0.7,1-1.3l0.8-15.5L970.7,540.9z"/>
			<polygon class="st2" points="959.7,535.1 969.2,529.5 971.5,530.4 961.8,536.1 			"/>
			<path class="st2" d="M970.9,509.3l-1.7-0.7c0.3,0.3,0.5,0.7,0.5,1.2l-0.8,12.7l-6.4,4.1l2.3,0.9l6.2-4l0.8-12.7
				C971.8,510.1,971.5,509.5,970.9,509.3z"/>
		</g>
		<path class="st2" d="M988.1,520.1l1.1,2.9l-3.5,7.8l3.7,2.9l-1,5.8l2.2,0.7l1-5.5l-3.7-2.9l3.5-7.8l-1.1-2.9l2.2-7
			c0.2-0.8-0.7-1.4-1.3-0.9L990,514L988.1,520.1z"/>
		<path class="st2" d="M994.1,541.6l-3.2,5.3c-0.2,0.3-0.4,0.5-0.7,0.6l-10.8,4.2c0.2,0.8,1.1,1.4,2,1.1l10.9-4.3
			c0.3-0.1,0.6-0.3,0.7-0.6l3.4-5.6L994.1,541.6z"/>
		<polygon class="st2" points="1005.9,523.8 1009.3,523.9 1012.8,521.6 1010.7,520.6 		"/>
		<polygon class="st2" points="1010.5,524.9 1008.6,528.9 1010.8,529.7 1013,525 		"/>
		<path class="st2" d="M1007.9,519.3l2.1,1l-1.6-6.8c-0.2-0.7-1.2-0.8-1.5-0.2l-0.3,0.6L1007.9,519.3z"/>
		<path class="st2" d="M1013,535.2l4.3-2.8l-2.3-0.9l-4.1,2.7l1.7,2.4c0.6,0.8,0.2,2-0.7,2.4l-9.3,3.6l-0.6,0.7
			c-0.4,0.5,0.1,1.3,0.8,1l11.2-4.4c1-0.4,1.3-1.5,0.7-2.4L1013,535.2z"/>
		<polygon class="st2" points="998.5,531.4 996.2,531.2 995.1,531.9 998.4,532.2 		"/>
		<path class="st2" d="M1002.7,516.4l0.2-0.4l-4.1-3c-0.3-0.2-0.6-0.3-1-0.2L1002.7,516.4z"/>
		<polygon class="st2" points="1025.2,520.3 1028.2,520.4 1031.1,517.1 1028.6,516.5 		"/>
		<path class="st2" d="M1033.4,525.5l0.9-3.9l-2.3-0.1l-0.7,3l1.4,4.7c0.3,0.9-0.2,1.9-1.1,2.3l-7.1,2.8l-2.2,2.7l11.4-4.5
			c0.9-0.4,1.4-1.3,1.1-2.3L1033.4,525.5z"/>
		<path class="st2" d="M1026.1,510.3l-1.2,4.8l2.2,0.6l1.1-4.4l-1.3-2.6c-0.3-0.5-0.9-0.6-1.3-0.1l-0.2,0.3L1026.1,510.3z"/>
		<g>
			<path class="st2" d="M1040.4,502.9l2.2,0.3l0.8-5.2c0.1-0.7-0.5-1.2-1.2-1.1l-1,0.2L1040.4,502.9z"/>
			<polygon class="st2" points="1035.8,513.4 1032.3,512.4 1032.3,512.8 1035.8,513.8 			"/>
			<path class="st2" d="M1053.2,523.2l-4-7.4l0.6-10.8l-2.2-0.3l-0.6,10.1l4,7.4c0.4,0.7,0.1,1.6-0.7,1.8l-9.8,3.8l0.2,0.3
				c0.3,0.7,1.1,1,1.8,0.7l10-3.8C1053.3,524.8,1053.6,523.9,1053.2,523.2z"/>
		</g>
		<g>
			<polygon class="st2" points="1053.3,500.1 1049.7,499.4 1049.7,500 1053.3,500.7 			"/>
			<path class="st2" d="M1070.7,516.5l-6.6-12.8l-2.8-22.6c-0.1-0.6-0.8-0.8-1.1-0.3l-0.8,1l2.6,20.9l6.6,12.8
				c0.3,0.6,0,1.4-0.6,1.6l-8.8,3.4l0.2,0.4c0.4,0.7,1.2,0.9,1.9,0.7l8.8-3.4C1070.7,517.9,1071,517.1,1070.7,516.5z"/>
		</g>
		<path class="st2" d="M1094.2,505.9l-10.8-17.8c0-0.1-0.1-0.2-0.1-0.2l-5.1-25.1c-0.2-1.1-1.3-1.5-2.2-1.2c0,0.1,0.1,0.1,0.1,0.2
			l5.1,25.1c0,0.1,0,0.2,0.1,0.2l10.8,17.8c0.7,1.2,0.2,2.7-1.1,3.2l-12.4,4.8c-0.2,0.1-0.4,0.1-0.6,0.1c0.6,0.9,1.8,1.3,2.8,0.9
			l12.4-4.8C1094.4,508.6,1094.9,507.1,1094.2,505.9z"/>
		<path class="st2" d="M1118.2,497.6l-16-26.1l-6.6-30.7c-0.2-0.9-1.3-1.1-1.8-0.4l-0.1,0.2l6.4,29.9l16,26.1
			c0.4,0.7,0.1,1.6-0.6,1.9l-12.3,4.8c0,0-0.1,0-0.1,0l0.3,0.4c0.4,0.6,1.3,0.9,2,0.6l12.3-4.8
			C1118.3,499.2,1118.6,498.3,1118.2,497.6z"/>
		<path class="st2" d="M1142.9,488l-24.1-38.7l-6.6-29.6c-0.2-0.9-1.4-1.2-2-0.5l6.5,29.1l24.1,38.7c0.4,0.7,0.1,1.6-0.6,1.9
			l-12.9,5.1c-0.1,0-0.2,0-0.3,0.1l0.2,0.3c0.5,0.7,1.4,1,2.2,0.7l12.9-5.1C1143,489.6,1143.3,488.7,1142.9,488z"/>
	</g>
	<polygon class="st4" points="935.1,631.3 913.1,658.7 946.1,642.3 	"/>
	<polygon class="st0" points="825.4,596.9 853,598.1 839.3,592.7 	"/>
	<polygon class="st0" points="772.8,575.7 800.2,577.3 788.8,572.8 	"/>
	<g>
		<g>
			<path class="st1" d="M720.5,597.4c-5.2,0-11.4-0.5-18.4-1.4c-2.6-0.4-4.8-1.6-5.7-3.3c-0.6-1.1-0.7-2.2-0.2-3.3
				c2.3-5.4,7.5-14.4,15.8-14.4c1.6,0,3.2,0.3,4.8,1c13.8,5.7,17.3,17.5,17.4,18l0.3,1.1l-1,0.6C733,595.8,729.9,597.4,720.5,597.4z
				"/>
			<g>
				<path class="st1" d="M711.8,576.5c1.3,0,2.7,0.3,4.2,0.9c13.3,5.5,16.6,17,16.6,17s-2.8,1.6-12.2,1.6c-4.5,0-10.4-0.4-18.2-1.4
					c-3.3-0.5-5.6-2.6-4.8-4.5C699.6,585,704.4,576.5,711.8,576.5 M711.8,573.5L711.8,573.5c-9.1,0-14.6,9.6-17.1,15.3
					c-0.6,1.5-0.5,3.1,0.3,4.6c1.2,2.1,3.8,3.7,6.9,4.1c7.1,1,13.4,1.5,18.6,1.5c9.6,0,13-1.6,13.6-2l2.1-1.2l-0.6-2.3
					c-0.1-0.5-3.8-13-18.3-19C715.4,573.8,713.6,573.5,711.8,573.5L711.8,573.5z"/>
			</g>
		</g>
		<g>
			<path class="st7" d="M702.2,594.5c-3.3-0.5-5.6-2.6-4.8-4.5c2.6-5.9,8.8-16.7,18.6-12.7c13.3,5.5,16.6,17,16.6,17
				S726.5,597.8,702.2,594.5z"/>
		</g>
		<path class="st8" d="M715.2,582.4c-4.9,1.6,5.1,4.7,5.1,4.7s10.7,3.4-16,7.6c21.7,3.2,28.4-0.4,28.4-0.4s-3.3-11.5-16.6-17
			C716.1,577.4,720.1,580.9,715.2,582.4z"/>
	</g>
	<g>
		<g>
			<path class="st1" d="M1165.4,571.5c-4.4,0-7.6-1.1-7.7-1.1l-1.3-0.5l0.4-1.4c0.1-0.2,1.6-5.3,8.3-7.3c0.7-0.2,1.4-0.3,2.1-0.3
				c4.6,0,6.3,5,6.6,7.9l0.1,1.2l-1.1,0.4C1170.4,571.1,1168,571.5,1165.4,571.5C1165.4,571.5,1165.4,571.5,1165.4,571.5z"/>
			<g>
				<path class="st1" d="M1167.1,562.4c4.5,0,5.1,6.6,5.1,6.6c-2.4,0.8-4.8,1.1-6.9,1.1c-4.2,0-7.2-1.1-7.2-1.1s1.3-4.5,7.3-6.3
					C1166.1,562.5,1166.6,562.4,1167.1,562.4 M1167.1,559.4c-0.8,0-1.7,0.1-2.5,0.4c-5.9,1.8-8.6,6.1-9.3,8.3l-0.8,2.7l2.7,0.9
					c0.1,0.1,3.6,1.2,8.2,1.2c2.7,0,5.4-0.4,7.8-1.2l2.3-0.8l-0.2-2.4C1174.9,565.2,1172.8,559.4,1167.1,559.4L1167.1,559.4z"/>
			</g>
		</g>
		<g>
			<path class="st7" d="M1172.3,568.9c0,0-0.8-8.1-6.8-6.3s-7.3,6.3-7.3,6.3S1165,571.3,1172.3,568.9z"/>
		</g>
		<path class="st8" d="M1165.7,562.6c1.2,0.6,3.7,2.7-0.4,7.4c2.1,0,4.5-0.2,7-1.1C1172.3,568.9,1171.5,561.1,1165.7,562.6z"/>
	</g>
	<g>
		<g>
			<path class="st1" d="M1136.7,557.5c-6.7,0-13-1.4-18.9-4.2l-0.9-0.4l0.1-1c0.1-1.1,2-26.3,15.2-26.3c1.6,0,3.3,0.4,5,1.1
				c16.4,7.1,20.1,24.2,20.3,25l0.2,1.1l-1,0.5C1156.2,553.5,1148,557.5,1136.7,557.5z"/>
			<g>
				<path class="st1" d="M1132.1,527.1c1.3,0,2.8,0.3,4.4,1c15.9,6.9,19.4,23.9,19.4,23.9s-8.1,4-19.2,4c-5.6,0-11.9-1-18.3-4
					C1118.4,552,1120.2,527.1,1132.1,527.1 M1132.1,524.1L1132.1,524.1c-14.3,0-16.5,24.9-16.7,27.7l-0.1,2.1l1.9,0.9
					c6.1,2.9,12.6,4.3,19.5,4.3c11.7,0,20.2-4.2,20.5-4.3l2.1-1l-0.5-2.3c-0.2-0.8-4-18.6-21.1-26
					C1135.8,524.6,1133.9,524.1,1132.1,524.1L1132.1,524.1z"/>
			</g>
		</g>
		<g>
			<path class="st7" d="M1118.4,552c0,0,2.2-30.8,18.1-23.9s19.4,23.9,19.4,23.9S1137.6,561.1,1118.4,552z"/>
		</g>
		<path class="st8" d="M1123.6,554.1c17.2,5.4,32.3-2,32.3-2s-2.1-10.2-10.4-18C1148.3,539.6,1149.2,549.3,1123.6,554.1z"/>
	</g>
	<polygon class="st3" points="772.3,554.7 891.4,556 889.8,572.3 876.1,595.2 	"/>
</g>
</svg>
